<svg width="35" height="35" viewBox="0 0 35 35" fill="none" xmlns="http://www.w3.org/2000/svg">
<path d="M0.559452 16.1401L13.1992 3.50011C13.56 3.1393 14.0409 2.94125 14.5536 2.94125C15.067 2.94125 15.5476 3.13959 15.9084 3.50011L17.056 4.64799C17.4165 5.00823 17.6151 5.4894 17.6151 6.00245C17.6151 6.51521 17.4165 7.0126 17.056 7.37284L9.68214 14.7629H33.1092C34.1654 14.7629 35 15.5898 35 16.6463V18.2691C35 19.3257 34.1654 20.2359 33.1092 20.2359H9.59848L17.0557 27.6673C17.4162 28.0281 17.6148 28.4962 17.6148 29.0092C17.6148 29.5217 17.4162 29.9966 17.0557 30.3571L15.9081 31.5013C15.5473 31.8621 15.0667 32.0587 14.5534 32.0587C14.0406 32.0587 13.5597 31.8596 13.1989 31.4987L0.55917 18.859C0.197506 18.4971 -0.00139618 18.0139 2.67029e-05 17.5003C-0.00111008 16.985 0.197506 16.5015 0.559452 16.1401Z" fill="white"/>
</svg>
