<svg width="35" height="35" viewBox="0 0 35 35" fill="none" xmlns="http://www.w3.org/2000/svg">
<g clip-path="url(#clip0)">
<path d="M30.3625 31.9375H4.72502C2.18752 31.9375 0.0875244 29.8375 0.0875244 27.3V8.575C0.0875244 6.0375 2.18752 3.9375 4.72502 3.9375H30.3625C32.9 3.9375 35 6.0375 35 8.575V27.2125C35 29.8375 32.9 31.9375 30.3625 31.9375ZM4.72502 5.6875C3.06252 5.6875 1.75002 7 1.75002 8.575V27.2125C1.75002 28.7875 3.06252 30.1 4.63752 30.1H30.275C31.85 30.1 33.1625 28.7875 33.1625 27.2125V8.575C33.1625 7 31.85 5.6875 30.275 5.6875H4.72502Z" fill="white"/>
<path d="M17.5 20.9125C16.0125 20.9125 14.6125 20.2125 13.5625 19.075L5.24997 9.1C4.89997 8.75 4.98747 8.225 5.33747 7.875C5.68747 7.525 6.29997 7.6125 6.56247 7.9625L14.9625 18.025C15.575 18.8125 16.5375 19.25 17.5 19.25C18.4625 19.25 19.425 18.8125 20.0375 18.025L28.35 8.05C28.7 7.7 29.225 7.6125 29.575 7.9625C29.925 8.3125 30.0125 8.8375 29.6625 9.1875L21.35 19.1625C20.475 20.3 19.075 20.9125 17.5 20.9125Z" fill="white"/>
<path d="M31.0625 27.825C30.8 27.825 30.5375 27.7375 30.3625 27.475L24.325 20.3C23.975 19.95 24.0625 19.3375 24.4125 19.075C24.7625 18.725 25.375 18.8125 25.6375 19.1625L31.675 26.3375C32.025 26.6875 31.9375 27.3 31.5875 27.5625C31.5 27.7375 31.2375 27.825 31.0625 27.825Z" fill="white"/>
<path d="M3.93748 27.7375C3.76248 27.7375 3.49998 27.65 3.41248 27.5625C3.06248 27.2125 2.97498 26.6875 3.32498 26.3375L9.27498 19.25C9.62498 18.9 10.15 18.8125 10.5 19.1625C10.85 19.5125 10.9375 20.0375 10.5875 20.3875L4.63748 27.475C4.46248 27.65 4.19998 27.7375 3.93748 27.7375Z" fill="white"/>
</g>
<defs>
<clipPath id="clip0">
<rect width="35" height="35" fill="white"/>
</clipPath>
</defs>
</svg>
