<svg width="35" height="35" viewBox="0 0 35 35" fill="none" xmlns="http://www.w3.org/2000/svg">
<path d="M29.6188 20.6646L28.9844 20.1542C28.8139 20.0176 28.6762 19.8445 28.5815 19.6476C28.4869 19.4508 28.4377 19.2351 28.4375 19.0167V13.125C28.4367 10.5931 27.5574 8.13991 25.9498 6.18388C24.3422 4.22785 22.1057 2.89016 19.6219 2.39897C19.5008 1.92924 19.227 1.51309 18.8435 1.21596C18.4601 0.918839 17.9888 0.757599 17.5037 0.757599C17.0186 0.757599 16.5472 0.918839 16.1638 1.21596C15.7804 1.51309 15.5065 1.92924 15.3854 2.39897C12.9003 2.88867 10.6621 4.22572 9.05306 6.18189C7.44397 8.13806 6.5637 10.5921 6.56252 13.125V19.0167C6.56238 19.2351 6.51317 19.4508 6.41851 19.6476C6.32386 19.8445 6.18618 20.0176 6.01565 20.1542L5.38127 20.6646C4.61512 21.2771 3.99602 22.0536 3.56951 22.9369C3.143 23.8202 2.91992 24.7879 2.91669 25.7688V26.9792C2.91669 27.7527 3.22398 28.4946 3.77096 29.0416C4.31794 29.5885 5.05981 29.8958 5.83335 29.8958H11.8563C12.185 31.141 12.9165 32.2424 13.9367 33.0282C14.957 33.8141 16.2086 34.2402 17.4964 34.2402C18.7842 34.2402 20.0358 33.8141 21.056 33.0282C22.0763 32.2424 22.8078 31.141 23.1365 29.8958H29.1667C29.9402 29.8958 30.6821 29.5885 31.2291 29.0416C31.7761 28.4946 32.0834 27.7527 32.0834 26.9792V25.7833C32.0823 24.8 31.8603 23.8294 31.4337 22.9434C31.0071 22.0574 30.3868 21.2786 29.6188 20.6646ZM17.5 31.3542C16.991 31.3511 16.4917 31.2149 16.0517 30.959C15.6116 30.7032 15.2462 30.3367 14.9917 29.8958H20.0156C19.7605 30.3377 19.394 30.7049 18.9525 30.9608C18.5111 31.2168 18.0103 31.3524 17.5 31.3542ZM29.1667 26.9792H5.83335V25.7833C5.83413 25.2369 5.95773 24.6976 6.19501 24.2054C6.43229 23.7132 6.77719 23.2806 7.20419 22.9396L7.83856 22.4292C8.35016 22.0196 8.7632 21.5003 9.04717 20.9096C9.33114 20.3189 9.47878 19.672 9.47919 19.0167V13.125C9.47919 10.9977 10.3242 8.95762 11.8284 7.45342C13.3326 5.94922 15.3728 5.10417 17.5 5.10417C19.6273 5.10417 21.6674 5.94922 23.1716 7.45342C24.6758 8.95762 25.5209 10.9977 25.5209 13.125V19.0167C25.5202 19.6733 25.6673 20.3216 25.9513 20.9136C26.2353 21.5056 26.6489 22.0261 27.1615 22.4365L27.7959 22.9469C28.2219 23.2871 28.5662 23.7185 28.8035 24.2094C29.0407 24.7003 29.1648 25.2381 29.1667 25.7833V26.9792Z" fill="white"/>
</svg>
