<svg width="35" height="35" viewBox="0 0 35 35" fill="none" xmlns="http://www.w3.org/2000/svg">
<path d="M17.5 17.5C19.0143 17.5 20.4945 17.051 21.7536 16.2097C23.0126 15.3684 23.994 14.1727 24.5735 12.7737C25.1529 11.3747 25.3046 9.83526 25.0091 8.35009C24.7137 6.86493 23.9845 5.50071 22.9138 4.42997C21.843 3.35922 20.4788 2.63003 18.9937 2.33462C17.5085 2.0392 15.9691 2.19082 14.5701 2.7703C13.1711 3.34978 11.9753 4.3311 11.1341 5.59017C10.2928 6.84923 9.84375 8.32949 9.84375 9.84375C9.84375 11.8743 10.6504 13.8217 12.0862 15.2575C13.522 16.6934 15.4694 17.5 17.5 17.5ZM17.5 4.375C18.5816 4.375 19.6389 4.69574 20.5383 5.29665C21.4376 5.89757 22.1385 6.75167 22.5525 7.75095C22.9664 8.75024 23.0747 9.84982 22.8637 10.9107C22.6527 11.9715 22.1318 12.9459 21.367 13.7107C20.6022 14.4756 19.6277 14.9964 18.5669 15.2074C17.5061 15.4184 16.4065 15.3101 15.4072 14.8962C14.4079 14.4823 13.5538 13.7814 12.9529 12.882C12.352 11.9827 12.0312 10.9254 12.0312 9.84375C12.0312 8.39335 12.6074 7.00235 13.633 5.97676C14.6586 4.95117 16.0496 4.375 17.5 4.375Z" fill="white"/>
<path d="M18.5938 19.6875H16.4062C13.2154 19.6875 10.1552 20.9551 7.89887 23.2114C5.64257 25.4677 4.375 28.5279 4.375 31.7188C4.375 32.0088 4.49023 32.287 4.69535 32.4921C4.90047 32.6973 5.17867 32.8125 5.46875 32.8125H29.5312C29.8213 32.8125 30.0995 32.6973 30.3046 32.4921C30.5098 32.287 30.625 32.0088 30.625 31.7188C30.625 28.5279 29.3574 25.4677 27.1011 23.2114C24.8448 20.9551 21.7846 19.6875 18.5938 19.6875ZM6.62812 30.625C6.89707 28.2195 8.0429 25.9973 9.84668 24.3832C11.6505 22.7691 13.9857 21.8761 16.4062 21.875H18.5938C21.0143 21.8761 23.3495 22.7691 25.1533 24.3832C26.9571 25.9973 28.1029 28.2195 28.3719 30.625H6.62812Z" fill="white"/>
</svg>
