<svg width="35" height="35" viewBox="0 0 35 35" fill="none" xmlns="http://www.w3.org/2000/svg">
<path fill-rule="evenodd" clip-rule="evenodd" d="M29.8958 34.2708H5.10415C3.09019 34.2708 1.45831 32.639 1.45831 30.625V1.45833C1.45831 1.05583 1.78425 0.729164 2.18748 0.729164H26.9791C27.281 0.729164 27.5406 0.912914 27.6514 1.17468C27.6879 1.26146 27.7083 1.35771 27.7083 1.45833V11.6667H32.8125C33.2157 11.6667 33.5416 11.9933 33.5416 12.3958V30.625C33.5416 32.639 31.9098 34.2708 29.8958 34.2708ZM26.25 30.625V2.1875H2.91665V30.625C2.91665 31.8332 3.89665 32.8125 5.10415 32.8125H26.9952C26.5344 32.2015 26.25 31.4497 26.25 30.625ZM32.0833 13.125H27.7083V30.625C27.7083 31.8332 28.6876 32.8125 29.8958 32.8125C31.104 32.8125 32.0833 31.8332 32.0833 30.625V13.125ZM5.10415 29.1667C5.10415 28.7642 5.43008 28.4375 5.83331 28.4375H12.3958C12.799 28.4375 13.125 28.7642 13.125 29.1667C13.125 29.5699 12.799 29.8958 12.3958 29.8958H5.83331C5.43008 29.8958 5.10415 29.5699 5.10415 29.1667ZM8.50644 17.2922C8.22863 17.57 7.778 17.57 7.49946 17.2922C7.22165 17.0144 7.22165 16.563 7.49946 16.2852L11.8052 11.9795C11.8285 11.9452 11.8438 11.9058 11.8745 11.8752C12.0181 11.7316 12.2077 11.6652 12.3958 11.6696C12.5839 11.6652 12.7735 11.7308 12.9172 11.8752C12.9478 11.9058 12.9624 11.9452 12.9864 11.9795L16.0416 15.0347L17.6385 13.4378C17.6619 13.4035 17.6772 13.3642 17.7078 13.3335C17.8514 13.1899 18.041 13.1235 18.2291 13.1286C18.4173 13.1235 18.6069 13.1899 18.7505 13.3335C18.7811 13.3642 18.7957 13.4035 18.8198 13.4378L21.6672 16.2852C21.945 16.563 21.945 17.0144 21.6672 17.2922C21.3886 17.57 20.938 17.57 20.6602 17.2922L18.2291 14.8611L17.0486 16.0417L17.2922 16.2852C17.57 16.563 17.57 17.0144 17.2922 17.2922C17.0144 17.57 16.563 17.57 16.2852 17.2922L12.3958 13.4028L8.50644 17.2922ZM16.7708 21.1458H23.3333C23.7365 21.1458 24.0625 21.4725 24.0625 21.875C24.0625 22.2782 23.7365 22.6042 23.3333 22.6042H16.7708C16.3676 22.6042 16.0416 22.2782 16.0416 21.875C16.0416 21.4725 16.3676 21.1458 16.7708 21.1458ZM16.7708 24.7917H23.3333C23.7365 24.7917 24.0625 25.1183 24.0625 25.5208C24.0625 25.9241 23.7365 26.25 23.3333 26.25H16.7708C16.3676 26.25 16.0416 25.9241 16.0416 25.5208C16.0416 25.1183 16.3676 24.7917 16.7708 24.7917ZM16.7708 28.4375H23.3333C23.7365 28.4375 24.0625 28.7642 24.0625 29.1667C24.0625 29.5699 23.7365 29.8958 23.3333 29.8958H16.7708C16.3676 29.8958 16.0416 29.5699 16.0416 29.1667C16.0416 28.7642 16.3676 28.4375 16.7708 28.4375ZM17.5 11.3021C17.5 11.9066 17.01 12.3958 16.4062 12.3958C15.8025 12.3958 15.3125 11.9066 15.3125 11.3021C15.3125 10.6976 15.8025 10.2083 16.4062 10.2083C17.01 10.2083 17.5 10.6976 17.5 11.3021ZM19.6875 7.29166H9.47915C9.07592 7.29166 8.74998 6.965 8.74998 6.5625C8.74998 6.16 9.07592 5.83333 9.47915 5.83333H19.6875C20.0907 5.83333 20.4166 6.16 20.4166 6.5625C20.4166 6.965 20.0907 7.29166 19.6875 7.29166ZM5.83331 24.7917H12.3958C12.799 24.7917 13.125 25.1183 13.125 25.5208C13.125 25.9241 12.799 26.25 12.3958 26.25H5.83331C5.43008 26.25 5.10415 25.9241 5.10415 25.5208C5.10415 25.1183 5.43008 24.7917 5.83331 24.7917ZM13.125 21.875C13.125 22.2782 12.799 22.6042 12.3958 22.6042H5.83331C5.43008 22.6042 5.10415 22.2782 5.10415 21.875C5.10415 21.4725 5.43008 21.1458 5.83331 21.1458H12.3958C12.799 21.1458 13.125 21.4725 13.125 21.875Z" fill="white"/>
</svg>
