<svg width="35" height="35" viewBox="0 0 35 35" fill="none" xmlns="http://www.w3.org/2000/svg">
<path d="M0.213623 32.7242L10.3809 22.557C8.45245 20.1762 7.29164 17.1496 7.29164 13.8542C7.29164 6.21504 13.5067 0 21.1459 0C28.785 0 35 6.21504 35 13.8542C35 21.4934 28.785 27.7084 21.1458 27.7084C17.8504 27.7084 14.8238 26.5476 12.443 24.6192L2.27576 34.7864C1.9909 35.0712 1.52934 35.0712 1.24448 34.7864L0.213554 33.7554C-0.0711632 33.4707 -0.0711632 33.009 0.213623 32.7242ZM21.1458 24.7917C27.1771 24.7917 32.0833 19.8855 32.0833 13.8542C32.0833 7.82293 27.1771 2.9167 21.1458 2.9167C15.1145 2.9167 10.2083 7.82293 10.2083 13.8542C10.2083 19.8855 15.1145 24.7917 21.1458 24.7917Z" fill="white"/>
</svg>
