<svg width="35" height="35" viewBox="0 0 35 35" fill="none" xmlns="http://www.w3.org/2000/svg">
<g clip-path="url(#clip0)">
<path d="M17.5 10.6641C16.148 10.6641 14.8263 11.065 13.7022 11.8161C12.578 12.5673 11.7018 13.6349 11.1844 14.884C10.667 16.1331 10.5317 17.5076 10.7954 18.8336C11.0592 20.1597 11.7102 21.3777 12.6663 22.3337C13.6223 23.2898 14.8403 23.9408 16.1664 24.2046C17.4924 24.4684 18.8669 24.333 20.116 23.8156C21.3651 23.2982 22.4327 22.422 23.1839 21.2978C23.935 20.1737 24.3359 18.852 24.3359 17.5C24.3359 15.687 23.6157 13.9482 22.3337 12.6663C21.0518 11.3843 19.313 10.6641 17.5 10.6641ZM17.5 22.6953C16.4725 22.6953 15.468 22.3906 14.6136 21.8197C13.7593 21.2489 13.0934 20.4375 12.7002 19.4882C12.3069 18.5388 12.2041 17.4942 12.4045 16.4864C12.605 15.4787 13.0998 14.5529 13.8264 13.8264C14.5529 13.0998 15.4787 12.605 16.4864 12.4045C17.4942 12.2041 18.5388 12.3069 19.4882 12.7002C20.4375 13.0934 21.2489 13.7593 21.8197 14.6136C22.3906 15.468 22.6953 16.4725 22.6953 17.5C22.6953 18.8779 22.148 20.1993 21.1736 21.1736C20.1993 22.148 18.8779 22.6953 17.5 22.6953Z" fill="white"/>
<path d="M33.0859 13.125H30.6441C30.5873 13.1246 30.532 13.1064 30.4859 13.0731C30.4398 13.0398 30.4053 12.9929 30.3871 12.9391C30.2282 12.4877 30.0457 12.0451 29.8402 11.6129C29.8146 11.5619 29.8056 11.5042 29.8144 11.4478C29.8232 11.3914 29.8495 11.3392 29.8895 11.2984L31.6148 9.57031C31.7926 9.39257 31.9336 9.18156 32.0298 8.94932C32.126 8.71708 32.1755 8.46817 32.1755 8.2168C32.1755 7.96542 32.126 7.71651 32.0298 7.48427C31.9336 7.25203 31.7926 7.04102 31.6148 6.86328L28.134 3.38516C27.9562 3.2074 27.7452 3.06639 27.513 2.97019C27.2808 2.87399 27.0318 2.82447 26.7805 2.82447C26.5291 2.82447 26.2802 2.87399 26.0479 2.97019C25.8157 3.06639 25.6047 3.2074 25.427 3.38516L23.7016 5.11055C23.6608 5.15054 23.6086 5.1768 23.5522 5.18562C23.4958 5.19445 23.4381 5.18541 23.3871 5.15977C22.955 4.95428 22.5123 4.77174 22.0609 4.61289C22.0071 4.5947 21.9602 4.56016 21.9269 4.5141C21.8936 4.46803 21.8754 4.41272 21.875 4.35586V1.91406C21.875 1.40642 21.6733 0.919572 21.3144 0.560616C20.9554 0.20166 20.4686 0 19.9609 0H15.0391C14.5314 0 14.0446 0.20166 13.6856 0.560616C13.3267 0.919572 13.125 1.40642 13.125 1.91406V4.35586C13.1246 4.41272 13.1064 4.46803 13.0731 4.5141C13.0398 4.56016 12.9929 4.5947 12.9391 4.61289C12.4877 4.7718 12.0451 4.95435 11.6129 5.15977C11.5619 5.18541 11.5042 5.19445 11.4478 5.18562C11.3914 5.1768 11.3392 5.15054 11.2984 5.11055L9.57031 3.38516C9.39257 3.2074 9.18156 3.06639 8.94932 2.97019C8.71708 2.87399 8.46817 2.82447 8.2168 2.82447C7.96542 2.82447 7.71651 2.87399 7.48427 2.97019C7.25203 3.06639 7.04102 3.2074 6.86328 3.38516L3.38516 6.86602C3.2074 7.04376 3.06639 7.25477 2.97019 7.48701C2.87399 7.71924 2.82447 7.96816 2.82447 8.21953C2.82447 8.47091 2.87399 8.71982 2.97019 8.95206C3.06639 9.18429 3.2074 9.39531 3.38516 9.57305L5.11055 11.2984C5.15054 11.3392 5.1768 11.3914 5.18562 11.4478C5.19445 11.5042 5.18541 11.5619 5.15977 11.6129C4.95428 12.045 4.77174 12.4877 4.61289 12.9391C4.5947 12.9929 4.56016 13.0398 4.5141 13.0731C4.46803 13.1064 4.41272 13.1246 4.35586 13.125H1.91406C1.40642 13.125 0.919572 13.3267 0.560616 13.6856C0.20166 14.0446 0 14.5314 0 15.0391L0 19.9609C0 20.4686 0.20166 20.9554 0.560616 21.3144C0.919572 21.6733 1.40642 21.875 1.91406 21.875H4.35586C4.41272 21.8754 4.46803 21.8936 4.5141 21.9269C4.56016 21.9602 4.5947 22.0071 4.61289 22.0609C4.7718 22.5123 4.95435 22.9549 5.15977 23.3871C5.18541 23.4381 5.19445 23.4958 5.18562 23.5522C5.1768 23.6086 5.15054 23.6608 5.11055 23.7016L3.38516 25.4297C3.2074 25.6074 3.06639 25.8184 2.97019 26.0507C2.87399 26.2829 2.82447 26.5318 2.82447 26.7832C2.82447 27.0346 2.87399 27.2835 2.97019 27.5157C3.06639 27.748 3.2074 27.959 3.38516 28.1367L6.86602 31.6176C7.04376 31.7953 7.25477 31.9363 7.48701 32.0325C7.71924 32.1287 7.96816 32.1783 8.21953 32.1783C8.47091 32.1783 8.71982 32.1287 8.95206 32.0325C9.18429 31.9363 9.39531 31.7953 9.57305 31.6176L11.2984 29.8922C11.3392 29.8522 11.3914 29.8259 11.4478 29.8171C11.5042 29.8083 11.5619 29.8173 11.6129 29.843C12.045 30.0485 12.4877 30.231 12.9391 30.3898C12.9929 30.408 13.0398 30.4426 13.0731 30.4886C13.1064 30.5347 13.1246 30.59 13.125 30.6469V33.0859C13.125 33.5936 13.3267 34.0804 13.6856 34.4394C14.0446 34.7983 14.5314 35 15.0391 35H19.9609C20.4686 35 20.9554 34.7983 21.3144 34.4394C21.6733 34.0804 21.875 33.5936 21.875 33.0859V30.6441C21.8754 30.5873 21.8936 30.532 21.9269 30.4859C21.9602 30.4398 22.0071 30.4053 22.0609 30.3871C22.5123 30.2282 22.9549 30.0457 23.3871 29.8402C23.4381 29.8146 23.4958 29.8056 23.5522 29.8144C23.6086 29.8232 23.6608 29.8495 23.7016 29.8895L25.4297 31.6148C25.6074 31.7926 25.8184 31.9336 26.0507 32.0298C26.2829 32.126 26.5318 32.1755 26.7832 32.1755C27.0346 32.1755 27.2835 32.126 27.5157 32.0298C27.748 31.9336 27.959 31.7926 28.1367 31.6148L31.6176 28.134C31.7953 27.9562 31.9363 27.7452 32.0325 27.513C32.1287 27.2808 32.1783 27.0318 32.1783 26.7805C32.1783 26.5291 32.1287 26.2802 32.0325 26.0479C31.9363 25.8157 31.7953 25.6047 31.6176 25.427L29.8922 23.7016C29.8522 23.6608 29.8259 23.6086 29.8171 23.5522C29.8083 23.4958 29.8173 23.4381 29.843 23.3871C30.0485 22.955 30.231 22.5123 30.3898 22.0609C30.408 22.0071 30.4426 21.9602 30.4886 21.9269C30.5347 21.8936 30.59 21.8754 30.6469 21.875H33.0859C33.5936 21.875 34.0804 21.6733 34.4394 21.3144C34.7983 20.9554 35 20.4686 35 19.9609V15.0391C35 14.5314 34.7983 14.0446 34.4394 13.6856C34.0804 13.3267 33.5936 13.125 33.0859 13.125ZM33.3594 19.9609C33.3594 20.0335 33.3306 20.103 33.2793 20.1543C33.228 20.2056 33.1585 20.2344 33.0859 20.2344H30.6441C30.2475 20.2348 29.8609 20.3585 29.5376 20.5882C29.2143 20.8179 28.9703 21.1424 28.8395 21.5168C28.6995 21.9132 28.5389 22.3021 28.3582 22.6816C28.1849 23.0394 28.1274 23.4423 28.1935 23.8343C28.2597 24.2263 28.4463 24.588 28.7273 24.8691L30.4527 26.5945C30.5037 26.6458 30.5322 26.7151 30.5322 26.7873C30.5322 26.8595 30.5037 26.9288 30.4527 26.9801L26.9746 30.4555C26.9234 30.5064 26.8541 30.535 26.7818 30.535C26.7096 30.535 26.6403 30.5064 26.5891 30.4555L24.8637 28.7301C24.5825 28.449 24.2209 28.2624 23.8289 28.1963C23.4368 28.1301 23.034 28.1877 22.6762 28.3609C22.2957 28.5417 21.906 28.7024 21.5086 28.8422C21.1347 28.9735 20.8108 29.2177 20.5816 29.5409C20.3524 29.8642 20.2292 30.2506 20.2289 30.6469V33.0859C20.2289 33.1585 20.2001 33.228 20.1488 33.2793C20.0975 33.3306 20.028 33.3594 19.9555 33.3594H15.0391C14.9665 33.3594 14.897 33.3306 14.8457 33.2793C14.7944 33.228 14.7656 33.1585 14.7656 33.0859V30.6441C14.7652 30.2475 14.6415 29.8609 14.4118 29.5376C14.1821 29.2143 13.8576 28.9703 13.4832 28.8395C13.0868 28.6995 12.6979 28.5389 12.3184 28.3582C11.9606 28.1849 11.5577 28.1274 11.1657 28.1935C10.7737 28.2597 10.412 28.4463 10.1309 28.7273L8.40547 30.4527C8.35424 30.5037 8.28493 30.5322 8.2127 30.5322C8.14046 30.5322 8.07115 30.5037 8.01992 30.4527L4.54453 26.9746C4.4936 26.9234 4.46502 26.8541 4.46502 26.7818C4.46502 26.7096 4.4936 26.6403 4.54453 26.5891L6.26992 24.8637C6.551 24.5825 6.73757 24.2209 6.80372 23.8289C6.86987 23.4368 6.81232 23.034 6.63906 22.6762C6.45826 22.2957 6.29762 21.906 6.15781 21.5086C6.02572 21.1362 5.78161 20.8138 5.45897 20.5856C5.13634 20.3575 4.75101 20.2348 4.35586 20.2344H1.91406C1.84154 20.2344 1.77199 20.2056 1.72071 20.1543C1.66943 20.103 1.64062 20.0335 1.64062 19.9609V15.0391C1.64062 14.9665 1.66943 14.897 1.72071 14.8457C1.77199 14.7944 1.84154 14.7656 1.91406 14.7656H4.35586C4.75246 14.7652 5.13914 14.6415 5.46243 14.4118C5.78572 14.1821 6.02967 13.8576 6.16055 13.4832C6.30046 13.0868 6.46109 12.6979 6.6418 12.3184C6.81506 11.9606 6.8726 11.5577 6.80645 11.1657C6.7403 10.7737 6.55374 10.412 6.27266 10.1309L4.54727 8.40547C4.49634 8.35424 4.46775 8.28493 4.46775 8.2127C4.46775 8.14046 4.49634 8.07115 4.54727 8.01992L8.02539 4.54453C8.07662 4.4936 8.14593 4.46502 8.21816 4.46502C8.2904 4.46502 8.35971 4.4936 8.41094 4.54453L10.1363 6.26992C10.4175 6.551 10.7791 6.73757 11.1711 6.80372C11.5631 6.86987 11.966 6.81232 12.3238 6.63906C12.7043 6.45826 13.094 6.29762 13.4914 6.15781C13.8638 6.02572 14.1862 5.78161 14.4144 5.45897C14.6425 5.13634 14.7652 4.75101 14.7656 4.35586V1.91406C14.7656 1.84154 14.7944 1.77199 14.8457 1.72071C14.897 1.66943 14.9665 1.64062 15.0391 1.64062H19.9609C20.0335 1.64062 20.103 1.66943 20.1543 1.72071C20.2056 1.77199 20.2344 1.84154 20.2344 1.91406V4.35586C20.2348 4.75246 20.3585 5.13914 20.5882 5.46243C20.8179 5.78572 21.1424 6.02967 21.5168 6.16055C21.9132 6.30046 22.3021 6.46109 22.6816 6.6418C23.0394 6.81506 23.4423 6.8726 23.8343 6.80645C24.2263 6.7403 24.588 6.55374 24.8691 6.27266L26.5945 4.54727C26.6458 4.49634 26.7151 4.46775 26.7873 4.46775C26.8595 4.46775 26.9288 4.49634 26.9801 4.54727L30.4609 8.02812C30.5119 8.07936 30.5405 8.14866 30.5405 8.2209C30.5405 8.29314 30.5119 8.36244 30.4609 8.41367L28.7355 10.1391C28.4545 10.4202 28.2679 10.7819 28.2017 11.1739C28.1356 11.5659 28.1931 11.9688 28.3664 12.3266C28.5472 12.707 28.7078 13.0968 28.8477 13.4941C28.979 13.868 29.2231 14.1919 29.5464 14.4211C29.8696 14.6503 30.2561 14.7736 30.6523 14.7738H33.0859C33.1585 14.7738 33.228 14.8026 33.2793 14.8539C33.3306 14.9052 33.3594 14.9747 33.3594 15.0473V19.9609Z" fill="white"/>
</g>
<defs>
<clipPath id="clip0">
<rect width="35" height="35" fill="white"/>
</clipPath>
</defs>
</svg>
