<svg width="35" height="35" viewBox="0 0 35 35" fill="none" xmlns="http://www.w3.org/2000/svg">
<path d="M17.5 32.0833C9.44587 32.0833 2.91669 25.5542 2.91669 17.5C2.91669 9.44585 9.44587 2.91667 17.5 2.91667C25.5542 2.91667 32.0834 9.44585 32.0834 17.5C32.0834 25.5542 25.5542 32.0833 17.5 32.0833ZM17.5 30.625C24.7488 30.625 30.625 24.7487 30.625 17.5C30.625 10.2513 24.7488 4.375 17.5 4.375C10.2513 4.375 4.37502 10.2513 4.37502 17.5C4.37502 24.7487 10.2513 30.625 17.5 30.625ZM22.0886 13.3386C22.3733 13.0538 22.835 13.0538 23.1198 13.3386C23.4045 13.6233 23.4045 14.085 23.1198 14.3698L15.8281 21.6614C15.5434 21.9462 15.0817 21.9462 14.7969 21.6614L11.8803 18.7448C11.5955 18.46 11.5955 17.9983 11.8803 17.7136C12.165 17.4288 12.6267 17.4288 12.9115 17.7136L15.3125 20.1146L22.0886 13.3386Z" fill="white"/>
</svg>
