<svg width="28" height="35" viewBox="0 0 28 35" fill="none" xmlns="http://www.w3.org/2000/svg">
<path d="M13.7635 1.00963C6.74202 1.00963 1.04999 6.40322 1.04999 13.0566C1.04999 16.0301 2.18698 18.7522 4.07151 20.8534L13.7635 33.3173L23.4554 20.8534C25.34 18.7522 26.4771 16.0301 26.4771 13.0566C26.4771 6.40322 20.7849 1.00963 13.7635 1.00963Z" fill="white"/>
<path d="M13.7635 33.3173L13.2327 33.6989L13.7635 34.3815L14.2943 33.6989L13.7635 33.3173ZM4.07153 20.8534L4.6023 20.4719L4.58849 20.4541L4.57343 20.4373L4.07153 20.8534ZM23.4555 20.8534L22.9536 20.4373L22.9386 20.4541L22.9247 20.4719L23.4555 20.8534ZM1.71275 13.0566C1.71275 6.76392 7.09889 1.64688 13.7635 1.64688V0.372375C6.3852 0.372375 0.387268 6.04252 0.387268 13.0566H1.71275ZM13.7635 1.64688C20.4281 1.64688 25.8143 6.76392 25.8143 13.0566H27.1397C27.1397 6.04252 21.1418 0.372375 13.7635 0.372375V1.64688ZM3.54075 21.235L13.2327 33.6989L14.2943 32.9357L4.6023 20.4719L3.54075 21.235ZM4.57343 20.4373C2.75312 18.4209 1.7007 15.9093 1.71275 13.0566H0.387268C0.399315 16.1512 1.62089 19.0835 3.56963 21.2696L4.57343 20.4373ZM14.2943 33.6989L23.9863 21.235L22.9247 20.4719L13.2327 32.9357L14.2943 33.6989ZM25.8143 13.0566C25.8264 15.9093 24.774 18.4209 22.9536 20.4373L23.9574 21.2696C25.9062 19.0835 27.1277 16.1512 27.1397 13.0566H25.8143Z" fill="#FF766B"/>
<path d="M13.7635 16.3421C15.6784 16.3421 17.2308 14.8711 17.2308 13.0566C17.2308 11.242 15.6784 9.77104 13.7635 9.77104C11.8485 9.77104 10.2961 11.242 10.2961 13.0566C10.2961 14.8711 11.8485 16.3421 13.7635 16.3421Z" fill="#FF766B"/>
</svg>
