<svg width="35" height="35" viewBox="0 0 35 35" fill="none" xmlns="http://www.w3.org/2000/svg">
<path d="M18.6536 9.24604L22.9135 10.2295L22.6676 11.2931L18.4077 10.3096L18.6536 9.24604ZM14.8339 0H13.7418V4.37429H14.8339V0ZM21.484 3.65953L20.7978 2.80755L17.4013 5.55792L18.0875 6.4099L21.484 3.65953ZM10.2309 10.2753L9.98505 9.21173L5.72512 10.1952L5.971 11.2588L10.2309 10.2753ZM30.1411 19.1382V25.7025C30.1411 30.843 25.9841 35 20.8436 35C17.3441 35 13.8447 33.359 11.3288 28.876C7.83507 22.4204 3.23778 18.1547 5.42778 15.9647C6.96021 14.4323 9.3675 15.9647 11.5518 17.9317V8.19964C11.5518 6.66721 12.7526 5.46643 14.285 5.46643C15.8174 5.46643 17.0182 6.66721 17.0182 8.19964V13.6661C17.4528 13.3401 18.0017 13.1171 18.6592 13.1171C19.7514 13.1171 20.7349 13.7747 21.1752 14.8669C21.7241 14.4266 22.3759 14.2093 23.0335 14.2093C24.566 14.2093 25.7668 15.4101 25.7668 16.9425C26.2014 16.6166 26.7502 16.3936 27.4078 16.3936C28.9403 16.405 30.1411 17.6058 30.1411 19.1382ZM29.0489 19.1382C29.0489 18.2634 28.2828 17.4971 27.4079 17.4971C26.533 17.4971 25.7668 18.2634 25.7668 19.1382V19.6871H24.6746V16.9539C24.6746 16.0791 23.9085 15.3129 23.0336 15.3129C22.1587 15.3129 21.3926 16.0791 21.3926 16.9539V18.595H20.3004V15.8618C20.3004 14.9869 19.5342 14.2207 18.6593 14.2207C17.7844 14.2207 17.0183 14.9869 17.0183 15.8618V19.6871H15.9261V8.19964C15.9261 7.32478 15.1599 6.55857 14.285 6.55857C13.4101 6.55857 12.6439 7.32478 12.6439 8.19964V20.5563C10.3453 18.149 7.39478 15.5244 6.194 16.7309C5.10186 17.9317 8.161 21.2139 12.318 28.43C14.285 31.6035 16.6923 33.8964 20.8493 33.8964C25.3322 33.8964 29.0489 29.9568 29.0489 25.6968V21.5398V19.1382ZM11.3059 5.57507L7.90941 2.8247L7.22324 3.67669L10.6197 6.42705L11.3059 5.57507Z" fill="white"/>
</svg>
