<svg width="25" height="25" viewBox="0 0 25 25" fill="none" xmlns="http://www.w3.org/2000/svg">
<path d="M11.6206 16.9912C11.3379 16.9912 11.0867 16.8656 10.9296 16.6772L6.18715 11.5264C5.84167 11.1496 5.87311 10.5528 6.24997 10.2073C6.62684 9.86184 7.2236 9.89328 7.56908 10.2701L11.652 14.6985L22.9585 3.42339C23.3354 3.04653 23.9322 3.04653 24.2776 3.42339C24.6231 3.80025 24.6545 4.39702 24.2776 4.7425L12.2802 16.7086C12.1231 16.897 11.8719 16.9912 11.6206 16.9912Z" fill="#FF766B"/>
<path d="M12.5 25C5.62184 25 0 19.3782 0 12.5C0 5.6219 5.62184 0 12.5 0C13.034 0 13.4422 0.408302 13.4422 0.942184C13.4422 1.47607 13.0339 1.88437 12.5 1.88437C6.65829 1.88437 1.88443 6.65823 1.88443 12.5C1.88443 18.3417 6.65829 23.1156 12.5 23.1156C18.3418 23.1156 23.1156 18.3417 23.1156 12.5C23.1156 11.966 23.5239 11.5578 24.0578 11.5578C24.5917 11.5578 25 11.9661 25 12.5C25 19.3782 19.3782 25 12.5 25Z" fill="#3A2C51"/>
</svg>
